<svg width="32" height="32" viewBox="0 0 32 32" fill="none" xmlns="http://www.w3.org/2000/svg">
<rect width="29" height="30" rx="8.50834" fill="white"/>
<path d="M15.0002 12.3167C13.5169 12.3167 12.3169 13.525 12.3169 15C12.3169 16.475 13.5252 17.6833 15.0002 17.6833C16.4752 17.6833 17.6836 16.475 17.6836 15C17.6836 13.525 16.4752 12.3167 15.0002 12.3167Z" fill="#090F4E"/>
<path d="M23.3668 17.3833L22.3085 16.7083C22.4418 16.1583 22.5085 15.5833 22.5085 15C22.5085 14.4166 22.4418 13.85 22.3085 13.2916L23.3668 12.6166C23.5502 12.5 23.6835 12.3083 23.7335 12.0916C23.7835 11.875 23.7335 11.65 23.6252 11.4666L21.8335 8.65828C21.5835 8.27495 21.0668 8.15828 20.6835 8.39995L19.6168 9.07495C18.9835 8.58328 18.2668 8.19162 17.5085 7.91662V6.65828C17.5085 6.19995 17.1335 5.82495 16.6752 5.82495H13.3418C12.8835 5.82495 12.5085 6.19995 12.5085 6.65828V7.91662C11.7502 8.18328 11.0335 8.57495 10.4002 9.07495L9.3335 8.39995C8.94183 8.15828 8.4335 8.26662 8.1835 8.65828L6.39183 11.4666C6.27517 11.65 6.2335 11.8833 6.2835 12.0916C6.3335 12.3083 6.46683 12.5 6.65017 12.6166L7.7085 13.2916C7.57517 13.85 7.5085 14.4166 7.5085 15C7.5085 15.5833 7.57517 16.15 7.7085 16.7083L6.65017 17.3833C6.46683 17.5 6.3335 17.6916 6.2835 17.9083C6.2335 18.125 6.2835 18.35 6.39183 18.5333L8.1835 21.3416C8.4335 21.725 8.94183 21.8416 9.3335 21.6L10.4002 20.925C11.0418 21.4166 11.7502 21.8083 12.5085 22.0833V23.3416C12.5085 23.8 12.8835 24.175 13.3418 24.175H16.6752C17.1335 24.175 17.5085 23.8 17.5085 23.3416V22.0833C18.2668 21.8166 18.9835 21.425 19.6168 20.925L20.6835 21.6C21.0752 21.85 21.5835 21.7333 21.8335 21.3416L23.6252 18.5333C23.7418 18.35 23.7835 18.1166 23.7335 17.9083C23.6835 17.6916 23.5502 17.5 23.3668 17.3833ZM15.0002 19.5916C12.4668 19.5916 10.4085 17.5333 10.4085 15C10.4085 12.4666 12.4668 10.4083 15.0002 10.4083C17.5335 10.4083 19.5918 12.4666 19.5918 15C19.5918 17.5333 17.5335 19.5916 15.0002 19.5916Z" fill="#090F4E"/>
</svg>
