<svg width="1280" height="19" viewBox="0 0 1280 19" fill="none" xmlns="http://www.w3.org/2000/svg">
<g opacity="0.2">
<rect y="5.5" width="1051" height="8" fill="url(#paint0_linear_64_484)"/>
<path d="M1061.29 15H1058.65L1064.6 3.36364H1067.77L1069.85 15H1067.22L1065.8 6.02273H1065.71L1061.29 15ZM1061.89 10.4261H1068.12L1067.79 12.3466H1061.56L1061.89 10.4261ZM1071.25 15L1073.18 3.36364H1075.64L1074.05 12.9716H1079.04L1078.7 15H1071.25ZM1080.33 15L1082.26 3.36364H1090.1L1089.76 5.39205H1084.38L1083.93 8.16477H1088.9L1088.56 10.1932H1083.59L1083.13 12.9716H1088.54L1088.19 15H1080.33ZM1094.29 3.36364L1095.97 7.32955H1096.06L1099.08 3.36364H1101.94L1097.43 9.18182L1100.09 15H1097.31L1095.58 11.0284H1095.49L1092.45 15H1089.58L1094.2 9.18182L1091.58 3.36364H1094.29ZM1103.57 15H1100.93L1106.88 3.36364H1110.05L1112.13 15H1109.5L1108.08 6.02273H1107.99L1103.57 15ZM1104.17 10.4261H1110.4L1110.07 12.3466H1103.84L1104.17 10.4261ZM1125.2 3.36364L1123.27 15H1121.14L1117.31 7.67614H1117.22L1115.99 15H1113.53L1115.47 3.36364H1117.62L1121.44 10.6818H1121.54L1122.75 3.36364H1125.2ZM1129.48 15H1125.3L1127.23 3.36364H1131.33C1132.5 3.36364 1133.48 3.60227 1134.25 4.07955C1135.03 4.55682 1135.57 5.24053 1135.89 6.13068C1136.21 7.01705 1136.27 8.07576 1136.06 9.30682C1135.86 10.4962 1135.47 11.517 1134.88 12.3693C1134.3 13.2178 1133.55 13.8693 1132.63 14.3239C1131.71 14.7746 1130.66 15 1129.48 15ZM1128.11 12.892H1129.62C1130.35 12.892 1130.99 12.7557 1131.54 12.483C1132.1 12.2102 1132.55 11.7898 1132.9 11.2216C1133.26 10.6534 1133.51 9.92614 1133.66 9.03977C1133.8 8.19886 1133.79 7.51705 1133.63 6.99432C1133.47 6.4678 1133.17 6.08333 1132.73 5.84091C1132.28 5.5947 1131.69 5.47159 1130.96 5.47159H1129.35L1128.11 12.892ZM1136.94 15L1138.87 3.36364H1143.46C1144.34 3.36364 1145.07 3.51894 1145.63 3.82955C1146.21 4.14015 1146.61 4.58144 1146.84 5.15341C1147.07 5.72159 1147.13 6.39205 1147 7.16477C1146.87 7.9375 1146.6 8.60038 1146.17 9.15341C1145.74 9.70644 1145.19 10.1326 1144.51 10.4318C1143.83 10.7273 1143.04 10.875 1142.15 10.875H1139.08L1139.42 8.89773H1142.09C1142.56 8.89773 1142.96 8.83333 1143.29 8.70455C1143.63 8.57576 1143.89 8.38258 1144.08 8.125C1144.28 7.86742 1144.41 7.54735 1144.47 7.16477C1144.53 6.77462 1144.51 6.44886 1144.4 6.1875C1144.29 5.92235 1144.09 5.72159 1143.8 5.58523C1143.52 5.44508 1143.14 5.375 1142.67 5.375H1141.01L1139.4 15H1136.94ZM1144.1 9.70455L1146.12 15H1143.4L1141.45 9.70455H1144.1ZM1151.93 3.36364L1149.99 15H1147.53L1149.47 3.36364H1151.93ZM1154.02 15H1151.39L1157.34 3.36364H1160.51L1162.59 15H1159.95L1158.54 6.02273H1158.44L1154.02 15ZM1154.63 10.4261H1160.85L1160.52 12.3466H1154.3L1154.63 10.4261ZM1166.85 13.4091L1166.67 14.0341C1166.54 14.5341 1166.36 15.0322 1166.14 15.5284C1165.92 16.0246 1165.71 16.4754 1165.49 16.8807C1165.28 17.2898 1165.11 17.6098 1164.98 17.8409H1163.41C1163.5 17.625 1163.62 17.3163 1163.78 16.9148C1163.95 16.517 1164.12 16.0682 1164.29 15.5682C1164.46 15.0682 1164.6 14.5606 1164.7 14.0455L1164.85 13.4091H1166.85ZM1171.99 15L1173.92 3.36364H1181.76L1181.42 5.39205H1176.04L1175.58 8.16477H1180.56L1180.22 10.1932H1175.24L1174.79 12.9716H1180.19L1179.85 15H1171.99ZM1190.81 7.125C1190.78 6.84848 1190.71 6.60417 1190.61 6.39205C1190.52 6.17614 1190.39 5.99432 1190.22 5.84659C1190.05 5.69508 1189.85 5.57955 1189.61 5.5C1189.38 5.42045 1189.1 5.38068 1188.78 5.38068C1188.19 5.38068 1187.63 5.52841 1187.11 5.82386C1186.6 6.11932 1186.16 6.54924 1185.8 7.11364C1185.43 7.67424 1185.18 8.35985 1185.05 9.17045C1184.91 9.98106 1184.91 10.6705 1185.05 11.2386C1185.19 11.8068 1185.45 12.2405 1185.84 12.5398C1186.23 12.8352 1186.73 12.983 1187.35 12.983C1187.9 12.983 1188.4 12.8845 1188.85 12.6875C1189.29 12.4867 1189.65 12.2045 1189.93 11.8409C1190.22 11.4773 1190.4 11.0473 1190.48 10.5511L1190.97 10.625H1187.97L1188.28 8.77273H1193.15L1192.9 10.2386C1192.73 11.2614 1192.38 12.1402 1191.82 12.875C1191.27 13.6098 1190.58 14.1742 1189.76 14.5682C1188.93 14.9621 1188.03 15.1591 1187.05 15.1591C1185.96 15.1591 1185.04 14.9186 1184.3 14.4375C1183.55 13.9527 1183.02 13.2652 1182.71 12.375C1182.4 11.4811 1182.34 10.4205 1182.55 9.19318C1182.7 8.25 1182.98 7.40909 1183.38 6.67045C1183.78 5.92803 1184.27 5.29924 1184.85 4.78409C1185.43 4.26894 1186.07 3.87689 1186.77 3.60795C1187.48 3.33901 1188.22 3.20455 1188.98 3.20455C1189.64 3.20455 1190.24 3.30114 1190.77 3.49432C1191.31 3.68371 1191.77 3.95265 1192.15 4.30114C1192.54 4.64962 1192.83 5.06439 1193.03 5.54545C1193.23 6.02273 1193.32 6.54924 1193.31 7.125H1190.81ZM1194.74 3.36364H1197.49L1199.32 8.375H1199.44L1202.91 3.36364H1205.67L1200.18 10.8864L1199.49 15H1197.05L1197.74 10.8864L1194.74 3.36364ZM1205.08 15L1207.01 3.36364H1211.6C1212.48 3.36364 1213.2 3.5322 1213.77 3.86932C1214.34 4.20265 1214.73 4.66667 1214.96 5.26136C1215.19 5.85227 1215.25 6.53409 1215.12 7.30682C1214.99 8.08333 1214.71 8.76705 1214.28 9.35795C1213.85 9.94508 1213.29 10.4034 1212.61 10.733C1211.92 11.0625 1211.13 11.2273 1210.23 11.2273H1207.31L1207.63 9.25568H1210.16C1210.64 9.25568 1211.04 9.17424 1211.38 9.01136C1211.72 8.8447 1211.99 8.61553 1212.19 8.32386C1212.4 8.02841 1212.53 7.68939 1212.59 7.30682C1212.65 6.91667 1212.63 6.57765 1212.52 6.28977C1212.42 6.00189 1212.22 5.77841 1211.94 5.61932C1211.66 5.45644 1211.28 5.375 1210.81 5.375H1209.15L1207.54 15H1205.08ZM1216.59 5.39205L1216.93 3.36364H1226.49L1226.14 5.39205H1222.58L1220.99 15H1218.56L1220.15 5.39205H1216.59Z" fill="white"/>
<rect x="1234" y="5.5" width="46" height="8" fill="url(#paint1_linear_64_484)"/>
</g>
<defs>
<linearGradient id="paint0_linear_64_484" x1="1051" y1="9.5" x2="0" y2="9.5" gradientUnits="userSpaceOnUse">
<stop stop-color="white"/>
<stop offset="1" stop-color="white" stop-opacity="0"/>
</linearGradient>
<linearGradient id="paint1_linear_64_484" x1="1234" y1="9.5" x2="1280" y2="9.5" gradientUnits="userSpaceOnUse">
<stop stop-color="white"/>
<stop offset="1" stop-color="white" stop-opacity="0"/>
</linearGradient>
</defs>
</svg>
