<svg width="332" height="19" viewBox="0 0 332 19" fill="none" xmlns="http://www.w3.org/2000/svg">
<g opacity="0.3">
<rect y="5.5" width="103" height="8" fill="url(#paint0_linear_70_234)"/>
<path d="M113.29 15H110.653L116.602 3.36364H119.773L121.852 15H119.216L117.801 6.02273H117.71L113.29 15ZM113.892 10.4261H120.119L119.79 12.3466H113.562L113.892 10.4261ZM123.253 15L125.185 3.36364H127.645L126.054 12.9716H131.043L130.702 15H123.253ZM132.331 15L134.263 3.36364H142.104L141.763 5.39205H136.382L135.928 8.16477H140.905L140.564 10.1932H135.587L135.132 12.9716H140.536L140.195 15H132.331ZM146.287 3.36364L147.969 7.32955H148.06L151.082 3.36364H153.94L149.435 9.18182L152.088 15H149.31L147.582 11.0284H147.491L144.446 15H141.577L146.196 9.18182L143.577 3.36364H146.287ZM155.571 15H152.935L158.884 3.36364H162.054L164.134 15H161.497L160.082 6.02273H159.991L155.571 15ZM156.173 10.4261H162.401L162.071 12.3466H155.844L156.173 10.4261ZM177.199 3.36364L175.267 15H173.142L169.307 7.67614H169.216L167.994 15H165.534L167.466 3.36364H169.625L173.443 10.6818H173.54L174.75 3.36364H177.199ZM181.482 15H177.3L179.232 3.36364H183.334C184.504 3.36364 185.476 3.60227 186.249 4.07955C187.025 4.55682 187.572 5.24053 187.891 6.13068C188.209 7.01705 188.266 8.07576 188.061 9.30682C187.864 10.4962 187.472 11.517 186.885 12.3693C186.298 13.2178 185.546 13.8693 184.629 14.3239C183.713 14.7746 182.663 15 181.482 15ZM180.112 12.892H181.624C182.355 12.892 182.995 12.7557 183.544 12.483C184.097 12.2102 184.55 11.7898 184.902 11.2216C185.258 10.6534 185.51 9.92614 185.658 9.03977C185.798 8.19886 185.788 7.51705 185.629 6.99432C185.474 6.4678 185.173 6.08333 184.726 5.84091C184.279 5.5947 183.692 5.47159 182.964 5.47159H181.345L180.112 12.892ZM188.94 15L190.872 3.36364H195.463C196.342 3.36364 197.065 3.51894 197.634 3.82955C198.205 4.14015 198.607 4.58144 198.838 5.15341C199.073 5.72159 199.128 6.39205 199.003 7.16477C198.874 7.9375 198.596 8.60038 198.168 9.15341C197.743 9.70644 197.19 10.1326 196.509 10.4318C195.83 10.7273 195.045 10.875 194.151 10.875H191.077L191.418 8.89773H194.088C194.558 8.89773 194.959 8.83333 195.293 8.70455C195.626 8.57576 195.889 8.38258 196.082 8.125C196.279 7.86742 196.408 7.54735 196.469 7.16477C196.533 6.77462 196.51 6.44886 196.401 6.1875C196.291 5.92235 196.092 5.72159 195.804 5.58523C195.516 5.44508 195.137 5.375 194.668 5.375H193.009L191.401 15H188.94ZM196.099 9.70455L198.116 15H195.401L193.446 9.70455H196.099ZM203.926 3.36364L201.994 15H199.534L201.466 3.36364H203.926ZM206.024 15H203.388L209.337 3.36364H212.507L214.587 15H211.95L210.536 6.02273H210.445L206.024 15ZM206.626 10.4261H212.854L212.524 12.3466H206.297L206.626 10.4261ZM218.845 13.4091L218.669 14.0341C218.536 14.5341 218.36 15.0322 218.141 15.5284C217.925 16.0246 217.709 16.4754 217.493 16.8807C217.277 17.2898 217.107 17.6098 216.982 17.8409H215.413C215.497 17.625 215.62 17.3163 215.783 16.9148C215.949 16.517 216.118 16.0682 216.288 15.5682C216.463 15.0682 216.601 14.5606 216.703 14.0455L216.845 13.4091H218.845ZM223.987 15L225.919 3.36364H233.76L233.419 5.39205H228.038L227.584 8.16477H232.561L232.22 10.1932H227.243L226.788 12.9716H232.192L231.851 15H223.987ZM242.807 7.125C242.777 6.84848 242.712 6.60417 242.614 6.39205C242.519 6.17614 242.388 5.99432 242.222 5.84659C242.055 5.69508 241.852 5.57955 241.614 5.5C241.375 5.42045 241.098 5.38068 240.784 5.38068C240.189 5.38068 239.633 5.52841 239.114 5.82386C238.598 6.11932 238.159 6.54924 237.795 7.11364C237.432 7.67424 237.184 8.35985 237.051 9.17045C236.915 9.98106 236.915 10.6705 237.051 11.2386C237.191 11.8068 237.455 12.2405 237.841 12.5398C238.231 12.8352 238.733 12.983 239.347 12.983C239.903 12.983 240.403 12.8845 240.847 12.6875C241.29 12.4867 241.652 12.2045 241.932 11.8409C242.216 11.4773 242.398 11.0473 242.477 10.5511L242.966 10.625H239.972L240.278 8.77273H245.148L244.898 10.2386C244.735 11.2614 244.377 12.1402 243.824 12.875C243.271 13.6098 242.581 14.1742 241.756 14.5682C240.934 14.9621 240.032 15.1591 239.051 15.1591C237.96 15.1591 237.042 14.9186 236.295 14.4375C235.553 13.9527 235.025 13.2652 234.71 12.375C234.4 11.4811 234.345 10.4205 234.545 9.19318C234.701 8.25 234.977 7.40909 235.375 6.67045C235.777 5.92803 236.267 5.29924 236.847 4.78409C237.426 4.26894 238.068 3.87689 238.773 3.60795C239.481 3.33901 240.218 3.20455 240.983 3.20455C241.642 3.20455 242.239 3.30114 242.773 3.49432C243.311 3.68371 243.771 3.95265 244.153 4.30114C244.54 4.64962 244.831 5.06439 245.028 5.54545C245.229 6.02273 245.322 6.54924 245.307 7.125H242.807ZM246.737 3.36364H249.493L251.317 8.375H251.442L254.913 3.36364H257.669L252.18 10.8864L251.493 15H249.05L249.737 10.8864L246.737 3.36364ZM257.081 15L259.013 3.36364H263.604C264.482 3.36364 265.204 3.5322 265.768 3.86932C266.337 4.20265 266.734 4.66667 266.962 5.26136C267.193 5.85227 267.246 6.53409 267.121 7.30682C266.992 8.08333 266.712 8.76705 266.28 9.35795C265.852 9.94508 265.295 10.4034 264.609 10.733C263.924 11.0625 263.132 11.2273 262.234 11.2273H259.308L259.632 9.25568H262.161C262.638 9.25568 263.045 9.17424 263.382 9.01136C263.723 8.8447 263.994 8.61553 264.195 8.32386C264.395 8.02841 264.526 7.68939 264.587 7.30682C264.651 6.91667 264.63 6.57765 264.524 6.28977C264.418 6.00189 264.223 5.77841 263.939 5.61932C263.659 5.45644 263.282 5.375 262.808 5.375H261.149L259.541 15H257.081ZM268.588 5.39205L268.929 3.36364H278.486L278.145 5.39205H274.582L272.991 15H270.56L272.151 5.39205H268.588Z" fill="white"/>
<rect x="286" y="5.5" width="46" height="8" fill="url(#paint1_linear_70_234)"/>
</g>
<defs>
<linearGradient id="paint0_linear_70_234" x1="103" y1="9.5" x2="0" y2="9.5" gradientUnits="userSpaceOnUse">
<stop stop-color="white"/>
<stop offset="1" stop-color="white" stop-opacity="0"/>
</linearGradient>
<linearGradient id="paint1_linear_70_234" x1="286" y1="9.5" x2="332" y2="9.5" gradientUnits="userSpaceOnUse">
<stop stop-color="white"/>
<stop offset="1" stop-color="white" stop-opacity="0"/>
</linearGradient>
</defs>
</svg>
