<svg width="132" height="133" viewBox="0 0 132 133" fill="none" xmlns="http://www.w3.org/2000/svg">
<circle cx="60" cy="61" r="60" fill="#386180" fill-opacity="0.1"/>
<path d="M91.7775 43.7157C91.2755 43.3431 90.5681 43.4499 90.1969 43.9505L81.4134 55.7911L76.3594 51.2054C75.8981 50.785 75.1823 50.8216 74.7633 51.2828C74.3442 51.7439 74.378 52.4597 74.8406 52.8789L80.8172 58.3042C81.0267 58.4941 81.2981 58.5967 81.5765 58.5967C81.6131 58.5967 81.6511 58.5953 81.6876 58.5925C82.0055 58.5616 82.2951 58.3971 82.485 58.1397L92.0123 45.2978C92.3836 44.7957 92.2795 44.0883 91.7775 43.7157ZM91.7775 43.7157C91.2755 43.3431 90.5681 43.4499 90.1969 43.9505L81.4134 55.7911L76.3594 51.2054C75.8981 50.785 75.1823 50.8216 74.7633 51.2828C74.3442 51.7439 74.378 52.4597 74.8406 52.8789L80.8172 58.3042C81.0267 58.4941 81.2981 58.5967 81.5765 58.5967C81.6131 58.5967 81.6511 58.5953 81.6876 58.5925C82.0055 58.5616 82.2951 58.3971 82.485 58.1397L92.0123 45.2978C92.3836 44.7957 92.2795 44.0883 91.7775 43.7157ZM83.3526 35.1221C76.5942 35.1221 70.882 39.674 69.113 45.8713H28.9842C28.3598 45.8713 27.855 46.3776 27.855 47.0019V80.4905C27.855 84.0118 30.7195 86.8777 34.2422 86.8777H81.4598C84.9825 86.8777 87.847 84.0118 87.847 80.4905V64.0402C93.8137 62.1319 98.145 56.5294 98.145 49.9327C98.145 41.7666 91.5089 35.1221 83.3526 35.1221ZM68.6559 48.1313C68.5842 48.7219 68.542 49.3224 68.542 49.9327C68.542 53.2403 69.6319 56.2974 71.4726 58.7655L60.757 68.0691C59.1834 69.4458 56.5129 69.4444 54.9253 68.0663L31.9894 48.1313H68.6559ZM85.5872 80.4905C85.5872 82.766 83.7365 84.618 81.4598 84.618H34.2422C31.9654 84.618 30.1148 82.766 30.1148 80.4905V49.4968L49.6434 66.4702L33.3 80.6579C32.8289 81.0671 32.7783 81.7799 33.1875 82.2511C33.4111 82.5099 33.7261 82.6421 34.0411 82.6421C34.304 82.6421 34.5684 82.5507 34.7822 82.3649L51.3661 67.9677L53.4431 69.7733C54.6609 70.831 56.257 71.3583 57.8503 71.3583C59.4436 71.3583 61.0354 70.8296 62.242 69.7733L64.3331 67.958L80.903 82.365C81.1167 82.5507 81.3811 82.6422 81.644 82.6422C81.9604 82.6422 82.274 82.51 82.4976 82.2525C82.9069 81.7814 82.8562 81.0671 82.3865 80.6579L66.0572 66.4603L72.9576 60.4683C75.6323 63.1093 79.3055 64.7421 83.3526 64.7421C84.112 64.7421 84.8587 64.6844 85.5872 64.5733V80.4905ZM83.3526 62.4821C76.4325 62.4821 70.8019 56.8514 70.8019 49.9327C70.8019 43.0125 76.4325 37.3819 83.3526 37.3819C90.263 37.3819 95.8851 43.0125 95.8851 49.9327C95.8851 56.8514 90.263 62.4821 83.3526 62.4821ZM91.7775 43.7157C91.2755 43.3431 90.5681 43.4499 90.1969 43.9505L81.4134 55.7911L76.3594 51.2054C75.8981 50.785 75.1823 50.8216 74.7633 51.2828C74.3442 51.7439 74.378 52.4597 74.8406 52.8789L80.8172 58.3042C81.0267 58.4941 81.2981 58.5967 81.5765 58.5967C81.6131 58.5967 81.6511 58.5953 81.6876 58.5925C82.0055 58.5616 82.2951 58.3971 82.485 58.1397L92.0123 45.2978C92.3836 44.7957 92.2795 44.0883 91.7775 43.7157ZM91.7775 43.7157C91.2755 43.3431 90.5681 43.4499 90.1969 43.9505L81.4134 55.7911L76.3594 51.2054C75.8981 50.785 75.1823 50.8216 74.7633 51.2828C74.3442 51.7439 74.378 52.4597 74.8406 52.8789L80.8172 58.3042C81.0267 58.4941 81.2981 58.5967 81.5765 58.5967C81.6131 58.5967 81.6511 58.5953 81.6876 58.5925C82.0055 58.5616 82.2951 58.3971 82.485 58.1397L92.0123 45.2978C92.3836 44.7957 92.2795 44.0883 91.7775 43.7157ZM91.7775 43.7157C91.2755 43.3431 90.5681 43.4499 90.1969 43.9505L81.4134 55.7911L76.3594 51.2054C75.8981 50.785 75.1823 50.8216 74.7633 51.2828C74.3442 51.7439 74.378 52.4597 74.8406 52.8789L80.8172 58.3042C81.0267 58.4941 81.2981 58.5967 81.5765 58.5967C81.6131 58.5967 81.6511 58.5953 81.6876 58.5925C82.0055 58.5616 82.2951 58.3971 82.485 58.1397L92.0123 45.2978C92.3836 44.7957 92.2795 44.0883 91.7775 43.7157Z" fill="#6BB3D9"/>
<path d="M83.3527 37.3821C76.4325 37.3821 70.8019 43.0127 70.8019 49.9329C70.8019 56.8516 76.4325 62.4822 83.3527 62.4822C90.263 62.4822 95.8852 56.8516 95.8852 49.9329C95.8852 43.0127 90.263 37.3821 83.3527 37.3821ZM92.0123 45.2979L82.485 58.1397C82.2952 58.3971 82.0055 58.5616 81.6877 58.5925C81.6511 58.5955 81.6131 58.5968 81.5766 58.5968C81.2981 58.5968 81.0267 58.4941 80.8172 58.3043L74.8406 52.879C74.378 52.4599 74.3442 51.7441 74.7633 51.2829C75.1823 50.8216 75.8981 50.785 76.3594 51.2054L81.4134 55.7912L90.1969 43.9505C90.5681 43.4499 91.2755 43.3432 91.7775 43.7157C92.2795 44.0885 92.3836 44.7958 92.0123 45.2979Z" fill="#DBE2EB"/>
<path d="M72.9577 60.4684L66.0572 66.4604L82.3866 80.6579C82.8563 81.0671 82.9069 81.7815 82.4977 82.2526C82.2741 82.51 81.9605 82.6423 81.6441 82.6423C81.3811 82.6423 81.1167 82.5509 80.903 82.3651L64.3332 67.9581L62.2421 69.7734C61.0355 70.8296 59.4436 71.3584 57.8503 71.3584C56.2571 71.3584 54.661 70.831 53.4431 69.7734L51.3661 67.9678L34.7822 82.3651C34.5685 82.5507 34.3041 82.6423 34.0411 82.6423C33.7261 82.6423 33.4111 82.5101 33.1875 82.2513C32.7783 81.7801 32.8289 81.0673 33.3 80.6581L49.6435 66.4703L30.1149 49.4968V80.4906C30.1149 82.766 31.9655 84.6181 34.2422 84.6181H81.4599C83.7366 84.6181 85.5872 82.766 85.5872 80.4906V64.5732C84.8588 64.6843 84.1121 64.742 83.3527 64.742C79.3055 64.742 75.6324 63.1093 72.9577 60.4684Z" fill="#DBE2EB"/>
</svg>
