<svg width="132" height="132" viewBox="0 0 132 132" fill="none" xmlns="http://www.w3.org/2000/svg">
<circle cx="60" cy="60.5" r="60" fill="#386180" fill-opacity="0.1"/>
<path d="M87.5611 32.9387C85.6061 30.9837 82.7586 30.2824 80.1236 31.0899L35.4986 44.8174C32.4174 45.7524 30.3774 48.4512 30.2711 51.6599C30.1649 54.8687 32.0349 57.6949 35.0311 58.8424L42.8299 61.8387L41.5761 71.8049C41.3211 73.7599 42.0011 75.6937 43.3824 77.0962C44.5936 78.3074 46.1874 78.9662 47.8874 78.9662C48.1636 78.9662 48.4186 78.9662 48.6949 78.9237L58.6611 77.6699L61.6574 85.4687C62.7836 88.3799 65.4611 90.2287 68.5636 90.2287H68.8399C72.0486 90.1224 74.7261 88.0612 75.6824 85.0012L89.4099 40.3549C90.2174 37.7199 89.5161 34.8724 87.5611 32.9174V32.9387ZM48.1636 74.7162C47.5049 74.8012 46.8674 74.5674 46.3999 74.0999C45.9324 73.6324 45.7199 72.9949 45.7836 72.3362L46.8886 63.4112L54.2411 66.2374L57.0674 73.5899L48.1424 74.6949L48.1636 74.7162ZM85.3511 39.1224L71.6236 83.7687C71.1349 85.3624 69.7961 85.9787 68.6911 85.9999C67.6286 86.0212 66.2261 85.5324 65.6311 83.9599L58.3849 65.1112L67.8836 55.6124C68.7124 54.7837 68.7124 53.4449 67.8836 52.6162C67.0549 51.7874 65.7161 51.7874 64.8874 52.6162L55.3886 62.1149L36.5611 54.8687C35.0099 54.2737 34.4999 52.8924 34.5211 51.8087C34.5424 50.7249 35.1586 49.3649 36.7524 48.8762L81.3986 35.1487C82.5461 34.7874 83.7361 35.0849 84.5861 35.9349C85.4361 36.7849 85.7336 37.9749 85.3724 39.1012L85.3511 39.1224Z" fill="#5A9FD5"/>
</svg>
