<svg width="35" height="34" viewBox="0 0 35 34" fill="none" xmlns="http://www.w3.org/2000/svg">
<rect x="2.33325" y="2" width="29" height="30" rx="8.50834" fill="white"/>
<path fill-rule="evenodd" clip-rule="evenodd" d="M16.3331 8C11.1819 8 6.99976 12.1821 6.99976 17.3333C6.99976 22.4846 11.1819 26.6667 16.3331 26.6667C21.4843 26.6667 25.6664 22.4846 25.6664 17.3333C25.6664 12.1821 21.4843 8 16.3331 8ZM15.5608 13.4444H15.5553C14.2673 13.4444 13.222 14.4898 13.222 15.7778C13.222 17.0658 14.2673 18.1111 15.5553 18.1111H17.1109C17.5402 18.1111 17.8886 18.4596 17.8886 18.8889C17.8886 19.3182 17.5402 19.6667 17.1109 19.6667H14.7775C14.3482 19.6667 13.9998 20.0151 13.9998 20.4444C13.9998 20.8738 14.3482 21.2222 14.7775 21.2222H15.56V22C15.56 22.4293 15.9084 22.7778 16.3378 22.7778C16.7671 22.7778 17.1155 22.4293 17.1155 22V21.2222C18.4012 21.2199 19.4442 20.1753 19.4442 18.8889C19.4442 17.6009 18.3989 16.5556 17.1109 16.5556H15.5553C15.126 16.5556 14.7775 16.2071 14.7775 15.7778C14.7775 15.3484 15.126 15 15.5553 15H17.8886C18.318 15 18.6664 14.6516 18.6664 14.2222C18.6664 13.7929 18.318 13.4444 17.8886 13.4444H17.1163V12.6667C17.1163 12.2373 16.7679 11.8889 16.3385 11.8889C15.9092 11.8889 15.5608 12.2373 15.5608 12.6667V13.4444Z" fill="#090F4E"/>
</svg>
