<svg width="49" height="30" viewBox="0 0 49 30" fill="none" xmlns="http://www.w3.org/2000/svg">
<g clip-path="url(#clip0_64_534)">
<path d="M43.5093 11.4857C43.5093 5.18571 38.5647 0.0428571 32.4567 0H32.4151H28.8002C28.1769 0 27.6783 0.514286 27.6783 1.15714C27.6783 1.8 28.1769 2.31429 28.8002 2.31429H32.3736C37.2766 2.31429 41.2656 6.42857 41.2656 11.4857C41.2656 16.5429 37.2766 20.6571 32.3736 20.6571H19.9913V18.5143H17.7476V22.9714H32.4151C38.5232 22.9714 43.5093 17.8286 43.5093 11.4857Z" fill="white"/>
<path d="M0.711426 11.4857C0.711426 17.7857 5.65602 22.9286 11.8056 22.9714H11.8472H15.4621C16.0854 22.9714 16.584 22.4571 16.584 21.8143C16.584 21.1714 16.0854 20.6571 15.4621 20.6571H11.8887C6.94411 20.6571 2.95519 16.5429 2.95519 11.4857C2.95519 6.42857 6.94411 2.31429 11.8472 2.31429H24.2294V4.45714H26.4732V0H11.8056C5.69758 0 0.711426 5.14286 0.711426 11.4857Z" fill="white"/>
<path d="M12.2627 12.5145L10.1436 6.72876H7.56738L11.2654 16.2002H13.0106L16.8333 6.72876H14.3818L12.2627 12.5145Z" fill="white"/>
<path d="M24.2296 12.7716L20.6561 6.72876H17.7476V16.2002H19.9913V10.0288L23.6894 16.2002H26.4733V6.72876H24.2296V12.7716Z" fill="white"/>
<path d="M32.9552 10.4573V12.643H34.5341V13.8858C34.3679 13.9715 34.1602 14.0573 33.9109 14.143C33.62 14.2287 33.2461 14.2715 32.8305 14.2715C32.415 14.2715 32.0826 14.1858 31.7502 14.0573C31.4178 13.9287 31.1685 13.7144 30.9192 13.4573C30.7114 13.2001 30.5037 12.9001 30.379 12.5573C30.2544 12.2144 30.2128 11.8287 30.2128 11.443C30.2128 11.0573 30.2959 10.6715 30.379 10.3287C30.5037 9.98583 30.6699 9.68583 30.9192 9.42869C31.1269 9.17155 31.4178 9.00012 31.7502 8.82869C32.0826 8.70012 32.415 8.6144 32.8305 8.6144C33.3292 8.6144 33.7031 8.70012 34.0355 8.82869C34.3679 8.95726 34.6588 9.17155 34.9081 9.42869L35.0328 9.55726L36.6117 7.75726L36.487 7.7144C36.03 7.28583 35.4898 6.94298 34.8665 6.77155C34.2433 6.60012 33.5785 6.5144 32.8721 6.5144C32.1657 6.5144 31.5009 6.64298 30.9192 6.85726C30.3375 7.07155 29.7973 7.4144 29.3402 7.84298C28.8832 8.27155 28.5508 8.78583 28.3015 9.42869C28.0521 10.0287 27.9275 10.7144 27.9275 11.4858C27.9275 12.2573 28.0521 12.943 28.3015 13.543C28.5508 14.143 28.8832 14.7001 29.3402 15.1287C29.7973 15.5573 30.2959 15.9001 30.9192 16.1144C31.5009 16.3287 32.1657 16.4573 32.8721 16.4573C33.5369 16.4573 34.2017 16.3715 34.825 16.243C35.4483 16.1144 36.0715 15.8573 36.6533 15.5573L36.7364 15.5144V10.4573H32.9552Z" fill="white"/>
<path d="M18.0798 26.2285H18.7031V29.9571H18.0798V26.2285Z" fill="white"/>
<path d="M19.4927 27.4285H20.0744V27.8142C20.1159 27.6856 20.2406 27.5571 20.3237 27.4713C20.4484 27.3856 20.6146 27.3428 20.8223 27.3428C20.9885 27.3428 21.1132 27.3856 21.2378 27.4285C21.3625 27.4713 21.4456 27.5571 21.5287 27.6428C21.6118 27.7285 21.6533 27.8571 21.6949 27.9428C21.7364 28.0713 21.7364 28.1999 21.7364 28.3285V29.9142H21.1132V28.6285C21.1132 28.5428 21.1132 28.4999 21.1132 28.4142C21.1132 28.3285 21.0716 28.2428 21.0716 28.1571C21.0301 28.0713 20.9885 28.0285 20.947 27.9856C20.9054 27.9428 20.8223 27.8999 20.6977 27.8999C20.6146 27.8999 20.4899 27.8999 20.4484 27.9428C20.3653 27.9856 20.3237 28.0285 20.2821 28.0713C20.2406 28.1142 20.199 28.1999 20.199 28.2856C20.199 28.3713 20.1575 28.4571 20.1575 28.5428V29.9142H19.5342V27.4285H19.4927Z" fill="white"/>
<path d="M22.1519 27.9428V27.4285H22.6505V26.7H23.2737V27.4285H23.9386V27.9857H23.2737V29.1C23.2737 29.2285 23.3153 29.3142 23.3568 29.4C23.3984 29.4857 23.4815 29.5285 23.6477 29.5285C23.6893 29.5285 23.7724 29.5285 23.8139 29.5285C23.897 29.5285 23.9386 29.4857 23.9801 29.4857V30C23.897 30.0428 23.8555 30.0428 23.7308 30.0857C23.6062 30.1285 23.5646 30.0857 23.4815 30.0857C23.3153 30.0857 23.1906 30.0857 23.066 30.0428C22.9829 30 22.8998 29.9571 22.8167 29.8714C22.7751 29.7857 22.7336 29.7 22.692 29.5714C22.6505 29.4428 22.6505 29.3142 22.6505 29.1857V28.0285H22.1519V27.9428Z" fill="white"/>
<path d="M24.9358 28.8856C24.9358 29.0571 25.0189 29.2285 25.1436 29.3142C25.2682 29.3999 25.4344 29.4856 25.6006 29.4856C25.7668 29.4856 25.8915 29.4428 25.9746 29.3999C26.0577 29.3142 26.1824 29.2713 26.2655 29.1428L26.7225 29.4856C26.5979 29.6571 26.4317 29.7856 26.2239 29.8713C26.0161 29.9571 25.8499 29.9999 25.6422 29.9999C25.476 29.9999 25.2682 29.9571 25.102 29.9142C24.9358 29.8713 24.8112 29.7428 24.6865 29.6571C24.5619 29.5285 24.4788 29.3999 24.3956 29.2285C24.3125 29.0571 24.271 28.8856 24.271 28.6713C24.271 28.4571 24.3125 28.2856 24.3956 28.1142C24.4788 27.9428 24.5619 27.8142 24.6865 27.6856C24.8112 27.5571 24.9358 27.4713 25.102 27.4285C25.2682 27.3856 25.4344 27.3428 25.6422 27.3428C25.8084 27.3428 25.9746 27.3856 26.0992 27.4285C26.2239 27.4713 26.3486 27.5999 26.4732 27.6856C26.5563 27.8142 26.6394 27.9428 26.7225 28.1142C26.7641 28.2856 26.8056 28.4999 26.8056 28.7142V28.8856H24.9358ZM26.1824 28.4142C26.1824 28.2428 26.1408 28.0713 26.0161 27.9856C25.8915 27.8571 25.7668 27.8142 25.5591 27.8142C25.3929 27.8142 25.2267 27.8571 25.102 27.9856C24.9774 28.1142 24.9358 28.2428 24.8943 28.4142H26.1824Z" fill="white"/>
<path d="M27.3873 27.4285H28.0105V27.8142C28.0936 27.6856 28.1767 27.5571 28.3014 27.4713C28.426 27.3856 28.5922 27.3428 28.7169 27.3428C28.7584 27.3428 28.8 27.3428 28.8415 27.3428C28.8831 27.3428 28.9247 27.3428 28.9662 27.3856V27.9856C28.9247 27.9856 28.8831 27.9428 28.8 27.9428C28.7169 27.9428 28.7169 27.9428 28.6338 27.9428C28.5091 27.9428 28.3845 27.9856 28.3014 28.0285C28.2183 28.0713 28.1352 28.1571 28.0936 28.1999C28.0521 28.2856 28.0105 28.3285 28.0105 28.4142C28.0105 28.4999 27.969 28.5428 27.969 28.5856V29.9571H27.3457V27.4285H27.3873Z" fill="white"/>
<path d="M29.5063 27.4285H30.0881V27.8142C30.1296 27.6856 30.2543 27.5571 30.3374 27.4713C30.462 27.3856 30.6282 27.3428 30.836 27.3428C31.0022 27.3428 31.1268 27.3856 31.2515 27.4285C31.3762 27.4713 31.4593 27.5571 31.5424 27.6428C31.6255 27.7285 31.667 27.8571 31.7086 27.9428C31.7501 28.0713 31.7501 28.1999 31.7501 28.3285V29.9142H31.1268V28.6285C31.1268 28.5428 31.1268 28.4999 31.1268 28.4142C31.1268 28.3285 31.0853 28.2428 31.0853 28.1571C31.0437 28.0713 31.0022 28.0285 30.9606 27.9856C30.9191 27.9428 30.836 27.8999 30.7113 27.8999C30.6282 27.8999 30.5036 27.8999 30.462 27.9428C30.3789 27.9856 30.3374 28.0285 30.2958 28.0713C30.2543 28.1142 30.2127 28.1999 30.2127 28.2856C30.2127 28.3713 30.1712 28.4571 30.1712 28.5428V29.9142H29.5479V27.4285H29.5063Z" fill="white"/>
<path d="M33.9939 29.5713C33.8692 29.6999 33.7861 29.8285 33.6615 29.8713C33.5368 29.9571 33.3706 29.9571 33.2044 29.9571C33.0798 29.9571 32.9967 29.9571 32.872 29.9142C32.7473 29.8713 32.6642 29.8285 32.5811 29.7856C32.498 29.7428 32.4149 29.6571 32.3734 29.5285C32.3318 29.4428 32.2903 29.3142 32.2903 29.1856C32.2903 29.0571 32.3318 28.9285 32.3734 28.8428C32.4149 28.7571 32.498 28.6713 32.5811 28.5856C32.6642 28.4999 32.7473 28.4571 32.872 28.4142C32.9967 28.3713 33.0798 28.3285 33.2044 28.3285C33.3291 28.3285 33.4537 28.2856 33.5368 28.2856C33.6615 28.2856 33.7446 28.2856 33.8692 28.2856H34.0354C34.0354 28.1142 33.9939 28.0285 33.8692 27.9428C33.7446 27.8571 33.6199 27.8142 33.4537 27.8142C33.3291 27.8142 33.2044 27.8571 33.0798 27.8999C32.9551 27.9428 32.872 28.0285 32.7889 28.0713L32.4565 27.7285C32.5811 27.5999 32.7473 27.4713 32.9136 27.4285C33.0798 27.3856 33.2875 27.3428 33.4953 27.3428C33.6615 27.3428 33.8277 27.3428 33.9523 27.3856C34.077 27.4285 34.1601 27.4713 34.2432 27.5571C34.3263 27.6428 34.3678 27.6856 34.4094 27.7713C34.4509 27.8571 34.4925 27.9428 34.4925 28.0285C34.4925 28.1142 34.5341 28.1999 34.5341 28.2856C34.5341 28.3713 34.5341 28.4142 34.5341 28.4999V29.9571H33.9939V29.5713ZM33.9523 28.7999H33.8277C33.7446 28.7999 33.6615 28.7999 33.5368 28.7999C33.4122 28.7999 33.3291 28.8428 33.246 28.8428C33.1629 28.8856 33.0798 28.9285 32.9967 28.9713C32.9136 29.0142 32.9136 29.0999 32.9136 29.1856C32.9136 29.2285 32.9136 29.3142 32.9551 29.3142C32.9967 29.3571 32.9967 29.3999 33.0382 29.3999C33.0798 29.4428 33.1213 29.4428 33.1629 29.4428C33.2044 29.4428 33.246 29.4428 33.3291 29.4428C33.5368 29.4428 33.703 29.3999 33.7861 29.2713C33.8692 29.1856 33.9523 29.0142 33.9523 28.8428V28.7999Z" fill="white"/>
<path d="M34.9497 27.9428V27.4285H35.4483V26.7H36.0716V27.4285H36.7364V27.9857H36.0716V29.1C36.0716 29.2285 36.1131 29.3142 36.1547 29.4C36.1962 29.4857 36.2793 29.5285 36.4456 29.5285C36.4871 29.5285 36.5702 29.5285 36.6118 29.5285C36.6949 29.5285 36.7364 29.4857 36.778 29.4857V30C36.6949 30.0428 36.6533 30.0428 36.5287 30.0857C36.404 30.1285 36.3624 30.0857 36.2793 30.0857C36.1131 30.0857 35.9885 30.0857 35.8638 30.0428C35.7392 30 35.6976 29.9571 35.6145 29.8714C35.573 29.7857 35.5314 29.7 35.4899 29.5714C35.4483 29.4428 35.4483 29.3142 35.4483 29.1857V28.0285H34.9497V27.9428Z" fill="white"/>
<path d="M37.1519 26.5715C37.1519 26.4858 37.1934 26.4001 37.2765 26.3144C37.3596 26.2286 37.4427 26.1858 37.5674 26.1858C37.692 26.1858 37.7751 26.2286 37.8582 26.3144C37.9413 26.4001 37.9829 26.4858 37.9829 26.5715C37.9829 26.7001 37.9413 26.7858 37.8582 26.8286C37.7751 26.9144 37.692 26.9572 37.5674 26.9572C37.4427 26.9572 37.3596 26.9144 37.2765 26.8286C37.1934 26.7429 37.1519 26.6572 37.1519 26.5715ZM37.235 27.4286H37.8582V29.9572H37.235V27.4286Z" fill="white"/>
<path d="M38.4814 28.6713C38.4814 28.4571 38.523 28.2856 38.6061 28.1142C38.6892 27.9428 38.7723 27.8142 38.897 27.6856C39.0216 27.5571 39.1463 27.4713 39.3125 27.4285C39.4787 27.3856 39.6449 27.3428 39.8526 27.3428C40.0604 27.3428 40.2266 27.3856 40.3928 27.4285C40.559 27.4713 40.6837 27.5999 40.8083 27.6856C40.933 27.8142 41.0161 27.9428 41.0992 28.1142C41.1823 28.2856 41.2238 28.4571 41.2238 28.6713C41.2238 28.8856 41.1823 29.0571 41.0992 29.2285C41.0161 29.3999 40.933 29.5285 40.8083 29.6571C40.6837 29.7856 40.559 29.8713 40.3928 29.9142C40.2266 29.9571 40.0604 29.9999 39.8526 29.9999C39.6449 29.9999 39.4787 29.9571 39.3125 29.9142C39.1463 29.8713 39.0216 29.7428 38.897 29.6571C38.7723 29.5285 38.6892 29.3999 38.6061 29.2285C38.523 29.0571 38.4814 28.8856 38.4814 28.6713ZM39.1047 28.6713C39.1047 28.7571 39.1047 28.8428 39.1463 28.9713C39.1878 29.0571 39.2294 29.1428 39.2709 29.2285C39.354 29.3142 39.3956 29.3571 39.4787 29.3999C39.5618 29.4428 39.6864 29.4428 39.7695 29.4428C39.8942 29.4428 39.9773 29.4428 40.0604 29.3999C40.1435 29.3571 40.2266 29.3142 40.2681 29.2285C40.3512 29.1428 40.3928 29.0571 40.3928 28.9713C40.4344 28.8856 40.4344 28.7999 40.4344 28.6713C40.4344 28.5856 40.4344 28.4571 40.3928 28.3713C40.3513 28.2856 40.3097 28.1999 40.2681 28.1142C40.185 28.0285 40.1435 27.9856 40.0604 27.9428C39.9773 27.8999 39.8526 27.8999 39.7695 27.8999C39.6449 27.8999 39.5618 27.8999 39.4787 27.9428C39.3956 27.9856 39.3125 28.0285 39.2709 28.1142C39.1878 28.1999 39.1463 28.2856 39.1463 28.3713C39.1047 28.4999 39.1047 28.5856 39.1047 28.6713Z" fill="white"/>
<path d="M41.7224 27.4285H42.3041V27.8142C42.3457 27.6856 42.4703 27.5571 42.5534 27.4713C42.6781 27.3856 42.8443 27.3428 43.0521 27.3428C43.2183 27.3428 43.3429 27.3856 43.4676 27.4285C43.5922 27.4713 43.6753 27.5571 43.7584 27.6428C43.8415 27.7285 43.8831 27.8571 43.9246 27.9428C43.9662 28.0713 43.9662 28.1999 43.9662 28.3285V29.9142H43.3429V28.6285C43.3429 28.5428 43.3429 28.4999 43.3429 28.4142C43.3429 28.3285 43.3014 28.2428 43.3014 28.1571C43.2598 28.0713 43.2183 28.0285 43.1767 27.9856C43.1352 27.9428 43.0521 27.8999 42.9274 27.8999C42.8443 27.8999 42.7196 27.8999 42.6781 27.9428C42.595 27.9856 42.5534 28.0285 42.5119 28.0713C42.4703 28.1142 42.4288 28.1999 42.4288 28.2856C42.4288 28.3713 42.3872 28.4571 42.3872 28.5428V29.9142H41.764V27.4285H41.7224Z" fill="white"/>
<path d="M46.2099 29.5713C46.0853 29.6999 46.0022 29.8285 45.8775 29.8713C45.7529 29.9571 45.5867 29.9571 45.4205 29.9571C45.2958 29.9571 45.2127 29.9571 45.0881 29.9142C44.9634 29.8713 44.8803 29.8285 44.7972 29.7856C44.7141 29.7428 44.631 29.6571 44.5894 29.5285C44.5479 29.4428 44.5063 29.3142 44.5063 29.1856C44.5063 29.0571 44.5479 28.9285 44.5894 28.8428C44.631 28.7571 44.7141 28.6713 44.7972 28.5856C44.8803 28.4999 44.9634 28.4571 45.0881 28.4142C45.2127 28.3713 45.2958 28.3285 45.4205 28.3285C45.5451 28.3285 45.6698 28.2856 45.7529 28.2856C45.8775 28.2856 45.9606 28.2856 46.0853 28.2856H46.2515C46.2515 28.1142 46.2099 28.0285 46.0853 27.9428C45.9606 27.8571 45.836 27.8142 45.6698 27.8142C45.5451 27.8142 45.4205 27.8571 45.2958 27.8999C45.1712 27.9428 45.0881 28.0285 45.005 28.0713L44.6726 27.7285C44.7972 27.5999 44.9634 27.4713 45.1296 27.4285C45.2958 27.3856 45.5036 27.3428 45.7113 27.3428C45.8775 27.3428 46.0437 27.3428 46.1684 27.3856C46.2931 27.4285 46.3762 27.4713 46.4593 27.5571C46.5424 27.6428 46.5839 27.6856 46.6255 27.7713C46.667 27.8571 46.7086 27.9428 46.7086 28.0285C46.7086 28.1142 46.7501 28.1999 46.7501 28.2856C46.7501 28.3713 46.7501 28.4142 46.7501 28.4999V29.9571H46.2099V29.5713ZM46.1684 28.7999H46.0437C45.9606 28.7999 45.8775 28.7999 45.7529 28.7999C45.6282 28.7999 45.5451 28.8428 45.462 28.8428C45.3789 28.8856 45.2958 28.9285 45.2127 28.9713C45.1296 29.0142 45.1296 29.0999 45.1296 29.1856C45.1296 29.2285 45.1296 29.3142 45.1712 29.3142C45.2127 29.3571 45.2127 29.3999 45.2543 29.3999C45.2958 29.4428 45.3374 29.4428 45.3789 29.4428C45.4205 29.4428 45.462 29.4428 45.5451 29.4428C45.7529 29.4428 45.9191 29.3999 46.0022 29.2713C46.0853 29.1856 46.1684 29.0142 46.1684 28.8428V28.7999Z" fill="white"/>
<path d="M47.4565 25.9714H48.0798V29.9572H47.4565V25.9714Z" fill="white"/>
</g>
<defs>
<clipPath id="clip0_64_534">
<rect width="47.3684" height="30" fill="white" transform="translate(0.711426)"/>
</clipPath>
</defs>
</svg>
